<svg enable-background="new 0 0 100 100" viewBox="0 0 100 100" xmlns="http://www.w3.org/2000/svg"><path d="m50 80.6c17 0 30.8-13.8 30.8-30.8s-13.8-30.8-30.8-30.8-30.8 13.8-30.8 30.8c0 17.1 13.8 30.8 30.8 30.8z" fill="#6accf2"/><path d="m50 80.6c17 0 30.8-13.8 30.8-30.8s-13.8-30.8-30.8-30.8-30.8 13.8-30.8 30.8c0 17.1 13.8 30.8 30.8 30.8z" fill="#4495d4" opacity=".4"/><path d="m66.7 24c5.2 5.5 8.4 13 8.4 21.2 0 17-13.8 30.8-30.8 30.8-6.2 0-11.9-1.9-16.8-4.9 5.6 6 13.5 9.6 22.4 9.6 17 0 30.8-13.8 30.8-30.8 0-10.9-5.6-20.4-14-25.9z" fill="#4495d4"/><path d="m51 70.5-3-3c-1.8-1.8-4.1-2.7-6.6-2.7h-7.2c-2.5 0-4.8-1-6.6-2.7l-3.6-3.6c-.7-.7-1.1-1.7-1.1-2.6v-.4c0-2.1 1.7-3.7 3.7-3.7h13.1c4.1 0 7.5-3.4 7.5-7.5v-3.6c0-2.5 1-4.8 2.7-6.6l2-2c1.8-1.8 2.7-4.1 2.7-6.6v-6.1c-1.5-.2-3.1-.4-4.7-.4-17.1 0-30.9 13.8-30.9 30.8s13.8 30.8 30.8 30.8c.9 0 1.9-.1 2.8-.1v-5.8c.2-1.5-.5-3.1-1.6-4.2z" fill="#7dd16d"/><path d="m60.2 20.9v8.5c0 4.1 3.4 7.5 7.5 7.5h10.2c-3.5-7.5-9.9-13.3-17.7-16z" fill="#7dd16d"/><path d="m66.7 24c3.4 3.5 5.9 7.9 7.3 12.8h3.8c-2.4-5.2-6.3-9.6-11.1-12.8z" fill="#6bbc5a"/><path d="m44.4 76c-6.2 0-11.9-1.9-16.8-4.9 5.6 6 13.5 9.6 22.4 9.6.9 0 1.9-.1 2.8-.1v-5.7c-2.7.7-5.5 1.1-8.4 1.1z" fill="#6bbc5a"/><g fill="none" stroke="#aaa" stroke-linecap="round" stroke-opacity=".6" stroke-width="3"><path d="m85.5 39 4-3"/><path d="m87.5 47.5h6"/><path d="m13.5 39-4-3"/><path d="m11.5 47.5h-6"/><path d="m85.5 56.5 4 3"/><path d="m13.5 56.5-4 3"/></g><path clip-rule="evenodd" d="m57.2 39.1c-3.2-.4-6.1 1.1-7.7 3.4-1.6-2.3-4.4-3.8-7.7-3.4-3.5.4-6.3 3.1-6.8 6.4v.5c-.1 2 .8 4 2.3 5.4l12.2 11.6 12.2-11.6c1.5-1.4 2.4-3.4 2.3-5.4 0-.2 0-.3 0-.5-.5-3.3-3.3-6-6.8-6.4z" fill="#fff" fill-rule="evenodd"/></svg>